<svg width="107" height="53" viewBox="0 0 107 53" fill="none" xmlns="http://www.w3.org/2000/svg">
<path d="M0.432 41.648C0.432 41.52 0.634667 41.2533 1.04 40.848C1.44533 40.4427 1.79733 40.0587 2.096 39.696C2.416 39.312 2.65067 39.024 2.8 38.832C2.97067 38.6187 3.07733 38.512 3.12 38.512C3.248 38.512 3.312 38.5547 3.312 38.64L3.024 39.088C2.832 39.3867 2.736 39.664 2.736 39.92C2.736 40.816 2.896 41.616 3.216 42.32C3.55733 43.024 3.97333 43.5893 4.464 44.016C4.976 44.4213 5.552 44.7627 6.192 45.04C7.28 45.5093 8.432 45.744 9.648 45.744C12.1013 45.744 14.096 44.9653 15.632 43.408C17.1893 41.8507 17.968 40.2827 17.968 38.704C17.968 36.9973 17.2 35.152 15.664 33.168C15.024 32.336 14.3627 31.5147 13.68 30.704C12.144 28.784 11.376 27.0987 11.376 25.648C11.376 24.1973 11.952 22.8427 13.104 21.584C14.2773 20.3253 15.664 19.3547 17.264 18.672C18.8853 17.9893 20.4213 17.648 21.872 17.648C23.6213 17.648 25.0293 18.2667 26.096 19.504C26.5653 20.0587 26.8 20.4213 26.8 20.592C26.8 20.7627 26.7253 20.912 26.576 21.04C26.3413 21.232 25.9787 21.4987 25.488 21.84C25.0187 22.16 24.7413 22.32 24.656 22.32C24.592 22.32 24.56 22.256 24.56 22.128C24.56 21.36 24.1013 20.656 23.184 20.016C22.288 19.376 21.168 19.056 19.824 19.056C17.904 19.056 16.3893 19.5893 15.28 20.656C14.1707 21.7013 13.616 22.896 13.616 24.24C13.616 25.6053 14.4373 27.2373 16.08 29.136C16.7627 29.9253 17.4453 30.7253 18.128 31.536C19.7707 33.4773 20.592 35.28 20.592 36.944C20.592 38.5867 19.888 40.2187 18.48 41.84C17.072 43.4613 15.3547 44.7413 13.328 45.68C11.3013 46.6187 9.34933 47.088 7.472 47.088C6.23467 47.088 5.136 46.9173 4.176 46.576C3.216 46.192 2.48 45.7227 1.968 45.168C0.944 44.0587 0.432 42.8853 0.432 41.648ZM36.2065 25.264C37.9558 23.8133 39.4812 22.5013 40.7825 21.328C42.1052 20.1333 43.5025 18.736 44.9745 17.136C46.4678 15.536 47.6945 14.032 48.6545 12.624C49.6145 11.1947 50.4145 9.648 51.0545 7.984C51.6945 6.29866 52.0145 4.67733 52.0145 3.12C52.0145 2.75733 51.9398 2.45866 51.7905 2.224C51.6412 1.968 51.4385 1.84 51.1825 1.84C50.2225 1.84 48.7932 3.216 46.8945 5.968C44.9958 8.69867 42.9905 12.1013 40.8785 16.176L36.2065 25.264ZM32.5585 28.784C28.2065 31.92 26.0198 33.4773 25.9985 33.456C25.9345 33.456 25.9025 33.4133 25.9025 33.328C25.9025 33.2427 25.9665 33.1573 26.0945 33.072C29.9558 30.2773 32.2598 28.5707 33.0065 27.952L38.5745 17.392C38.7665 17.0293 39.1825 16.2293 39.8225 14.992C40.4625 13.7547 40.9105 12.9013 41.1665 12.432C41.4438 11.9627 41.8705 11.2053 42.4465 10.16C43.0438 9.11467 43.5558 8.31467 43.9825 7.76C44.4092 7.184 44.9318 6.50133 45.5505 5.712C46.6598 4.304 47.9825 3.056 49.5185 1.968C50.9905 0.858664 52.3132 0.303997 53.4865 0.303997C53.8705 0.303997 54.1478 0.463997 54.3185 0.783997C54.4892 1.104 54.5745 1.41333 54.5745 1.712C54.5745 5.25333 52.9852 8.99733 49.8065 12.944C48.7398 14.2667 47.7265 15.44 46.7665 16.464C45.8278 17.488 44.6332 18.6507 43.1825 19.952C41.3905 21.5733 38.8945 23.6853 35.6945 26.288L31.1505 35.44C32.0465 34.544 33.0385 33.68 34.1265 32.848C35.2358 32.016 36.0892 31.4187 36.6865 31.056C38.1372 30.1813 39.3852 29.744 40.4305 29.744C41.1132 29.744 41.6678 29.9893 42.0945 30.48C42.5212 30.9707 42.7345 31.6427 42.7345 32.496C42.7345 33.328 42.3718 34.448 41.6465 35.856C40.9212 37.2427 40.1958 38.6827 39.4705 40.176C38.7452 41.6693 38.3825 42.9707 38.3825 44.08C38.3825 44.8053 38.7025 45.168 39.3425 45.168C40.0465 45.168 41.0385 44.784 42.3185 44.016C43.6198 43.2267 44.8892 42.288 46.1265 41.2C47.3852 40.112 48.3452 39.0667 49.0065 38.064C49.0918 37.936 49.1772 37.872 49.2625 37.872C49.3478 37.872 49.3905 37.904 49.3905 37.968C49.3905 38.032 49.3692 38.1067 49.3265 38.192C48.1745 39.728 47.0225 40.9973 45.8705 42C44.7398 43.0027 43.3852 43.9627 41.8065 44.88C40.2492 45.7973 38.9585 46.256 37.9345 46.256C36.4838 46.256 35.7585 45.4667 35.7585 43.888C35.7585 42.864 36.1532 41.5627 36.9425 39.984C37.7318 38.4053 38.5212 36.912 39.3105 35.504C40.0998 34.096 40.4945 33.1467 40.4945 32.656C40.4945 32.1653 40.3665 31.7707 40.1105 31.472C39.8545 31.1733 39.5132 31.024 39.0865 31.024C37.9558 31.024 36.4198 31.8773 34.4785 33.584C32.5372 35.2693 31.1932 36.6773 30.4465 37.808C28.0785 41.328 26.7132 43.9947 26.3505 45.808C26.3078 45.9787 26.0945 46.064 25.7105 46.064C25.3265 46.064 25.0065 46.096 24.7505 46.16C24.4945 46.224 24.3452 46.256 24.3025 46.256C23.9185 46.256 23.7265 46.1067 23.7265 45.808C23.7265 45.5947 24.1852 44.5813 25.1025 42.768C26.0198 40.9547 26.8412 39.3867 27.5665 38.064C30.1478 33.136 31.8118 30.0427 32.5585 28.784ZM45.676 41.904L44.396 42.928C44.3533 42.928 44.332 42.8853 44.332 42.8C44.332 42.7147 44.4067 42.5973 44.556 42.448C44.7053 42.2987 45.1213 41.968 45.804 41.456C46.2947 39.92 47.0307 38.4693 48.012 37.104C48.9933 35.7387 49.996 34.64 51.02 33.808C52.044 32.9547 53.0147 32.2933 53.932 31.824C54.8493 31.3333 55.5747 31.088 56.108 31.088C57.2173 31.088 57.772 31.5147 57.772 32.368C57.772 32.688 57.6547 33.0187 57.42 33.36C57.1853 33.68 56.748 34.0853 56.108 34.576C55.4893 35.0667 54.892 35.5147 54.316 35.92C53.7613 36.304 52.8653 36.912 51.628 37.744C50.412 38.576 49.3667 39.3013 48.492 39.92C48.108 41.008 47.916 42.0213 47.916 42.96C47.916 43.8773 48.1613 44.56 48.652 45.008C49.164 45.456 50.0067 45.68 51.18 45.68C52.3747 45.68 53.74 45.264 55.276 44.432C56.8333 43.6 58.3053 42.5867 59.692 41.392C61.0787 40.176 62.1027 39.0667 62.764 38.064C62.8493 37.936 62.9347 37.872 63.02 37.872C63.1053 37.872 63.148 37.904 63.148 37.968C63.148 38.032 63.1267 38.1067 63.084 38.192C60.716 41.264 57.8573 43.6533 54.508 45.36C52.8867 46.128 51.308 46.512 49.772 46.512C46.8707 46.512 45.42 45.5093 45.42 43.504C45.42 43.2053 45.5053 42.672 45.676 41.904ZM48.748 39.344C51.2653 37.5307 53.0573 36.1333 54.124 35.152C55.1907 34.1493 55.724 33.3707 55.724 32.816C55.724 32.2613 55.4893 31.984 55.02 31.984C53.9747 31.984 52.8547 32.7413 51.66 34.256C50.4653 35.7493 49.4947 37.4453 48.748 39.344ZM59.551 41.904L58.271 42.928C58.2283 42.928 58.207 42.8853 58.207 42.8C58.207 42.7147 58.2817 42.5973 58.431 42.448C58.5803 42.2987 58.9963 41.968 59.679 41.456C60.1697 39.92 60.9057 38.4693 61.887 37.104C62.8683 35.7387 63.871 34.64 64.895 33.808C65.919 32.9547 66.8897 32.2933 67.807 31.824C68.7243 31.3333 69.4497 31.088 69.983 31.088C71.0923 31.088 71.647 31.5147 71.647 32.368C71.647 32.688 71.5297 33.0187 71.295 33.36C71.0603 33.68 70.623 34.0853 69.983 34.576C69.3643 35.0667 68.767 35.5147 68.191 35.92C67.6363 36.304 66.7403 36.912 65.503 37.744C64.287 38.576 63.2417 39.3013 62.367 39.92C61.983 41.008 61.791 42.0213 61.791 42.96C61.791 43.8773 62.0363 44.56 62.527 45.008C63.039 45.456 63.8817 45.68 65.055 45.68C66.2497 45.68 67.615 45.264 69.151 44.432C70.7083 43.6 72.1803 42.5867 73.567 41.392C74.9537 40.176 75.9777 39.0667 76.639 38.064C76.7243 37.936 76.8097 37.872 76.895 37.872C76.9803 37.872 77.023 37.904 77.023 37.968C77.023 38.032 77.0017 38.1067 76.959 38.192C74.591 41.264 71.7323 43.6533 68.383 45.36C66.7617 46.128 65.183 46.512 63.647 46.512C60.7457 46.512 59.295 45.5093 59.295 43.504C59.295 43.2053 59.3803 42.672 59.551 41.904ZM62.623 39.344C65.1403 37.5307 66.9323 36.1333 67.999 35.152C69.0657 34.1493 69.599 33.3707 69.599 32.816C69.599 32.2613 69.3643 31.984 68.895 31.984C67.8497 31.984 66.7297 32.7413 65.535 34.256C64.3403 35.7493 63.3697 37.4453 62.623 39.344ZM83.09 31.664L83.922 30.192C83.2607 30.3627 82.77 30.5333 82.45 30.704C82.5993 30.9813 82.8127 31.3013 83.09 31.664ZM79.186 31.6L78.546 31.728C78.3753 31.728 78.29 31.6427 78.29 31.472C78.29 31.28 80.3593 30.4907 84.498 29.104C86.3327 25.7547 87.25 23.3013 87.25 21.744C87.25 19.6107 86.3753 18.544 84.626 18.544C83.6447 18.544 82.7487 18.7253 81.938 19.088C81.1487 19.4293 80.2953 20.0587 79.378 20.976C79.2713 21.0827 79.1647 21.2 79.058 21.328C78.866 21.5627 78.738 21.68 78.674 21.68C78.546 21.68 78.482 21.6053 78.482 21.456C78.482 21.3067 78.7167 20.9973 79.186 20.528C81.042 18.608 83.2393 17.648 85.778 17.648C87.058 17.648 88.0607 17.9573 88.786 18.576C89.5113 19.1733 89.874 19.9307 89.874 20.848C89.874 22.384 89.0633 24.7307 87.442 27.888C90.386 26.5653 93.554 25.0507 96.946 23.344C100.359 21.616 102.631 20.336 103.762 19.504C104.167 19.2053 104.701 18.8747 105.362 18.512C106.045 18.1493 106.461 17.968 106.61 17.968C106.759 17.968 106.834 18.0107 106.834 18.096C106.834 18.2453 106.461 18.6507 105.714 19.312C104.967 19.952 103.901 20.72 102.514 21.616C101.149 22.512 99.7727 23.2373 98.386 23.792L86.93 28.912L84.306 33.712C84.6473 34.288 85.138 35.12 85.778 36.208C86.3753 37.2747 86.866 38.128 87.25 38.768C88.338 40.5813 89.5967 42.5867 91.026 44.784C92.4767 46.9813 93.618 48.5067 94.45 49.36C96.0713 51.0453 97.8313 51.888 99.73 51.888C101.65 51.888 103.613 51.12 105.618 49.584C105.703 49.4987 105.778 49.456 105.842 49.456C105.906 49.456 105.938 49.4773 105.938 49.52C105.938 50.1387 105.159 50.8 103.602 51.504C102.066 52.2293 100.519 52.592 98.962 52.592C96.5513 52.592 94.6313 52.1227 93.202 51.184C91.794 50.2667 90.2793 48.5813 88.658 46.128C86.546 42.8853 84.6047 39.6427 82.834 36.4C80.4233 40.688 78.3967 43.9093 76.754 46.064C76.5833 46.2347 76.434 46.3627 76.306 46.448C75.8793 46.7467 74.642 46.896 72.594 46.896C72.2953 46.896 72.146 46.832 72.146 46.704C72.146 46.6613 72.21 46.608 72.338 46.544C72.9353 46.2667 73.426 45.9147 73.81 45.488C76.2847 42.6507 78.8873 38.896 81.618 34.224C81.2767 33.648 80.85 33.072 80.338 32.496C79.826 31.8987 79.442 31.6 79.186 31.6Z" fill="white"/>
<path d="M1.04 40.848L0.332894 40.1409H0.332893L1.04 40.848ZM2.096 39.696L1.32777 39.0558L1.32407 39.0603L2.096 39.696ZM2.8 38.832L2.01906 38.2072L2.01065 38.2181L2.8 38.832ZM3.312 38.64L4.15318 39.1808L4.312 38.9337V38.64H3.312ZM3.216 42.32L2.30563 42.7338L2.31077 42.7451L2.31619 42.7563L3.216 42.32ZM4.464 44.016L3.80782 44.7706L3.82522 44.7857L3.8433 44.8L4.464 44.016ZM6.192 45.04L5.79439 45.9576L5.79591 45.9582L6.192 45.04ZM15.632 43.408L14.9249 42.7009L14.92 42.7058L15.632 43.408ZM15.664 33.168L14.8714 33.7777L14.8733 33.7802L15.664 33.168ZM13.68 30.704L12.8991 31.3287L12.907 31.3385L12.9151 31.3481L13.68 30.704ZM13.104 21.584L12.3725 20.9021L12.3663 20.9088L13.104 21.584ZM17.264 18.672L16.8759 17.7504L16.8716 17.7522L17.264 18.672ZM26.096 19.504L26.8594 18.858L26.8534 18.8511L26.096 19.504ZM26.576 21.04L27.2092 21.814L27.2181 21.8067L27.2268 21.7993L26.576 21.04ZM25.488 21.84L26.0514 22.6663L26.0591 22.6609L25.488 21.84ZM23.184 20.016L22.6027 20.8298L22.6118 20.8361L23.184 20.016ZM15.28 20.656L15.9658 21.3838L15.9731 21.3768L15.28 20.656ZM16.08 29.136L16.8364 28.4818L16.8363 28.4817L16.08 29.136ZM18.128 31.536L17.3631 32.1801L17.3646 32.1819L18.128 31.536ZM18.48 41.84L19.235 42.4957L18.48 41.84ZM13.328 45.68L13.7483 46.5874L13.328 45.68ZM4.176 46.576L3.80461 47.5045L3.82267 47.5117L3.84099 47.5182L4.176 46.576ZM1.968 45.168L2.7028 44.4897L1.968 45.168ZM1.432 41.648C1.432 41.7599 1.41063 41.8447 1.39626 41.8909C1.38127 41.939 1.36579 41.9707 1.35957 41.9828C1.34835 42.0046 1.34897 41.9981 1.38016 41.9571C1.44164 41.8762 1.55736 41.7449 1.74711 41.5551L0.332893 40.1409C0.117302 40.3565 -0.0709745 40.5611 -0.212162 40.7469C-0.282303 40.8392 -0.357683 40.9487 -0.419567 41.0692C-0.471499 41.1703 -0.568 41.3803 -0.568 41.648H1.432ZM1.74711 41.5551C2.17044 41.1318 2.54496 40.7239 2.86793 40.3317L1.32407 39.0603C1.04971 39.3934 0.720225 39.7536 0.332894 40.1409L1.74711 41.5551ZM2.86422 40.3362C3.18559 39.9505 3.42918 39.6519 3.58935 39.4459L2.01065 38.2181C1.87215 38.3961 1.64641 38.6735 1.32778 39.0558L2.86422 40.3362ZM3.58087 39.4567C3.65841 39.3598 3.70077 39.3134 3.71511 39.2991C3.72421 39.29 3.70266 39.3133 3.65724 39.3457C3.63414 39.3622 3.58517 39.3954 3.5148 39.4274C3.45237 39.4557 3.31134 39.512 3.12 39.512V37.512C2.76778 37.512 2.52649 37.6956 2.49476 37.7183C2.412 37.7774 2.34512 37.8407 2.30089 37.8849C2.20856 37.9772 2.11226 38.0909 2.01913 38.2073L3.58087 39.4567ZM3.12 39.512C3.10447 39.512 2.91795 39.5151 2.7093 39.376C2.59171 39.2977 2.48121 39.1825 2.40557 39.0312C2.332 38.8841 2.312 38.7443 2.312 38.64H4.312C4.312 38.306 4.16291 37.9414 3.8187 37.7119C3.54605 37.5302 3.26353 37.512 3.12 37.512V39.512ZM2.47082 38.0992L2.18282 38.5472L3.86518 39.6288L4.15318 39.1808L2.47082 38.0992ZM2.18282 38.5472C1.92576 38.9471 1.736 39.4115 1.736 39.92H3.736C3.736 39.9165 3.73824 39.8262 3.86518 39.6288L2.18282 38.5472ZM1.736 39.92C1.736 40.9362 1.91791 41.8808 2.30563 42.7338L4.12637 41.9062C3.87409 41.3512 3.736 40.6958 3.736 39.92H1.736ZM2.31619 42.7563C2.70469 43.5576 3.19681 44.2393 3.80782 44.7706L5.12018 43.2614C4.74986 42.9394 4.40997 42.4904 4.11581 41.8837L2.31619 42.7563ZM3.8433 44.8C4.42801 45.2629 5.07995 45.648 5.79439 45.9576L6.58961 44.1224C6.02405 43.8774 5.52399 43.5797 5.0847 43.232L3.8433 44.8ZM5.79591 45.9582C7.01231 46.4829 8.29944 46.744 9.648 46.744V44.744C8.56456 44.744 7.54769 44.5357 6.58809 44.1218L5.79591 45.9582ZM9.648 46.744C12.3333 46.744 14.5964 45.882 16.344 44.1102L14.92 42.7058C13.5956 44.0486 11.8694 44.744 9.648 44.744V46.744ZM16.3391 44.1151C18.0087 42.4455 18.968 40.6382 18.968 38.704H16.968C16.968 39.9272 16.37 41.2558 14.9249 42.7009L16.3391 44.1151ZM18.968 38.704C18.968 36.6929 18.0651 34.6358 16.4547 32.5558L14.8733 33.7802C16.3349 35.6682 16.968 37.3017 16.968 38.704H18.968ZM16.4566 32.5583C15.8076 31.7145 15.137 30.8817 14.4449 30.0599L12.9151 31.3481C13.5884 32.1476 14.2404 32.9575 14.8714 33.7777L16.4566 32.5583ZM14.4609 30.0793C12.977 28.2244 12.376 26.7607 12.376 25.648H10.376C10.376 27.4367 11.311 29.3436 12.8991 31.3287L14.4609 30.0793ZM12.376 25.648C12.376 24.4904 12.8268 23.368 13.8417 22.2592L12.3663 20.9088C11.0772 22.3174 10.376 23.9042 10.376 25.648H12.376ZM13.8355 22.2659C14.9126 21.1104 16.1834 20.2203 17.6564 19.5918L16.8716 17.7522C15.1446 18.489 13.6421 19.5402 12.3725 20.9021L13.8355 22.2659ZM17.6521 19.5936C19.1761 18.952 20.5797 18.648 21.872 18.648V16.648C20.2629 16.648 18.5946 17.0267 16.8759 17.7504L17.6521 19.5936ZM21.872 18.648C23.3538 18.648 24.4766 19.1571 25.3386 20.1569L26.8534 18.8511C25.582 17.3763 23.8889 16.648 21.872 16.648V18.648ZM25.3326 20.1499C25.5556 20.4134 25.7006 20.6057 25.7844 20.7353C25.8043 20.766 25.8185 20.7898 25.8282 20.8072C25.8382 20.8249 25.8414 20.8324 25.8407 20.8307C25.8404 20.83 25.8321 20.8115 25.8232 20.7781C25.8147 20.7467 25.8 20.6813 25.8 20.592H27.8C27.8 20.3457 27.7225 20.1415 27.6713 20.0253C27.6129 19.8926 27.5388 19.765 27.4636 19.6487C27.3127 19.4156 27.1058 19.1492 26.8594 18.8581L25.3326 20.1499ZM25.8 20.592C25.8 20.5257 25.8159 20.4521 25.8496 20.3848C25.8815 20.321 25.9164 20.2883 25.9252 20.2807L27.2268 21.7993C27.5602 21.5135 27.8 21.1007 27.8 20.592H25.8ZM25.9428 20.266C25.7392 20.4326 25.4025 20.6813 24.9169 21.0191L26.0591 22.6609C26.5548 22.316 26.9435 22.0314 27.2092 21.814L25.9428 20.266ZM24.9247 21.0138C24.6975 21.1686 24.5348 21.2724 24.4283 21.3338C24.3737 21.3653 24.3511 21.3756 24.3524 21.3751C24.3531 21.3748 24.374 21.3654 24.4097 21.3547C24.4353 21.347 24.5276 21.32 24.656 21.32V23.32C24.9076 23.32 25.1121 23.2259 25.1596 23.2049C25.2515 23.1644 25.3437 23.1147 25.4277 23.0662C25.5985 22.9676 25.8092 22.8314 26.0513 22.6662L24.9247 21.0138ZM24.656 21.32C24.815 21.32 24.9987 21.3626 25.1687 21.476C25.3324 21.5851 25.4271 21.7222 25.4784 21.8248C25.5278 21.9235 25.5455 22.0061 25.5524 22.0476C25.5598 22.0918 25.56 22.121 25.56 22.128H23.56C23.56 22.2431 23.5691 22.4783 23.6896 22.7192C23.7569 22.8538 23.8716 23.0149 24.0593 23.14C24.2533 23.2694 24.465 23.32 24.656 23.32V21.32ZM25.56 22.128C25.56 20.9015 24.8116 19.9322 23.7562 19.1959L22.6118 20.8361C23.3911 21.3798 23.56 21.8185 23.56 22.128H25.56ZM23.7652 19.2023C22.6652 18.4165 21.3297 18.056 19.824 18.056V20.056C21.0063 20.056 21.9108 20.3355 22.6028 20.8297L23.7652 19.2023ZM19.824 18.056C17.7128 18.056 15.9259 18.6476 14.5869 19.9352L15.9731 21.3768C16.8528 20.531 18.0952 20.056 19.824 20.056V18.056ZM14.5942 19.9282C13.3139 21.1346 12.616 22.5823 12.616 24.24H14.616C14.616 23.2097 15.0274 22.268 15.9658 21.3838L14.5942 19.9282ZM12.616 24.24C12.616 25.9784 13.6407 27.845 15.3237 29.7903L16.8363 28.4817C15.2339 26.6297 14.616 25.2323 14.616 24.24H12.616ZM15.3236 29.7902C16.0034 30.5761 16.6832 31.3728 17.3631 32.1801L18.8929 30.8919C18.2075 30.0779 17.5219 29.2746 16.8364 28.4818L15.3236 29.7902ZM17.3646 32.1819C18.9318 34.0341 19.592 35.6136 19.592 36.944H21.592C21.592 34.9464 20.6095 32.9206 18.8914 30.8901L17.3646 32.1819ZM19.592 36.944C19.592 38.2797 19.0244 39.6879 17.725 41.1843L19.235 42.4957C20.7516 40.7494 21.592 38.8936 21.592 36.944H19.592ZM17.725 41.1843C16.4133 42.6948 14.8116 43.8908 12.9077 44.7726L13.7483 46.5874C15.8978 45.5918 17.7307 44.2279 19.235 42.4957L17.725 41.1843ZM12.9077 44.7726C10.9881 45.6617 9.17925 46.088 7.472 46.088V48.088C9.51941 48.088 11.6146 47.5756 13.7483 46.5874L12.9077 44.7726ZM7.472 46.088C6.32513 46.088 5.3432 45.9297 4.51101 45.6338L3.84099 47.5182C4.9288 47.905 6.14421 48.088 7.472 48.088V46.088ZM4.54739 45.6475C3.67739 45.2995 3.08365 44.9023 2.7028 44.4897L1.2332 45.8463C1.87635 46.543 2.75461 47.0845 3.80461 47.5045L4.54739 45.6475ZM2.7028 44.4897C1.80984 43.5223 1.432 42.5812 1.432 41.648H-0.568C-0.568 43.1894 0.0781629 44.595 1.2332 45.8463L2.7028 44.4897ZM36.2065 25.264L35.3171 24.8068L36.8448 26.0338L36.2065 25.264ZM40.7825 21.328L41.4521 22.0707L41.4528 22.0701L40.7825 21.328ZM44.9745 17.136L44.2434 16.4537L44.2386 16.4589L44.9745 17.136ZM48.6545 12.624L49.4807 13.1873L49.4846 13.1816L48.6545 12.624ZM51.0545 7.984L51.9879 8.34298L51.9894 8.33901L51.0545 7.984ZM51.7905 2.224L50.9267 2.72787L50.9365 2.74457L50.9468 2.76088L51.7905 2.224ZM46.8945 5.968L47.7155 6.53888L47.7176 6.53588L46.8945 5.968ZM40.8785 16.176L39.9907 15.7158L39.9891 15.7188L40.8785 16.176ZM32.5585 28.784L33.4186 29.2942L31.9739 27.9727L32.5585 28.784ZM25.9985 33.456L26.7056 32.7489L26.4127 32.456H25.9985V33.456ZM26.0945 33.072L26.6492 33.904L26.6652 33.8934L26.6808 33.8821L26.0945 33.072ZM33.0065 27.952L33.6445 28.722L33.7981 28.5948L33.8911 28.4184L33.0065 27.952ZM38.5745 17.392L37.6907 16.9241L37.6899 16.9256L38.5745 17.392ZM39.8225 14.992L38.9343 14.5326L39.8225 14.992ZM41.1665 12.432L40.3056 11.9233L40.2968 11.9381L40.2886 11.9531L41.1665 12.432ZM42.4465 10.16L41.5783 9.66386L41.5744 9.6706L41.5707 9.67739L42.4465 10.16ZM43.9825 7.76L44.7751 8.36971L44.7807 8.36252L44.7861 8.35523L43.9825 7.76ZM45.5505 5.712L44.765 5.09312L44.7634 5.09512L45.5505 5.712ZM49.5185 1.968L50.0965 2.78402L50.1086 2.77549L50.1204 2.76661L49.5185 1.968ZM49.8065 12.944L50.5849 13.5718L50.5853 13.5713L49.8065 12.944ZM46.7665 16.464L46.0369 15.78L46.0293 15.7883L46.7665 16.464ZM43.1825 19.952L42.5147 19.2076L42.5116 19.2105L43.1825 19.952ZM35.6945 26.288L35.0635 25.5122L34.8953 25.649L34.7988 25.8433L35.6945 26.288ZM31.1505 35.44L30.2548 34.9953L31.8576 36.1471L31.1505 35.44ZM34.1265 32.848L33.5265 32.048L33.5191 32.0536L34.1265 32.848ZM36.6865 31.056L36.1702 30.1996L36.1675 30.2012L36.6865 31.056ZM42.0945 30.48L42.8491 29.8238V29.8238L42.0945 30.48ZM41.6465 35.856L42.5326 36.3195L42.5355 36.314L41.6465 35.856ZM39.4705 40.176L38.571 39.7391L39.4705 40.176ZM42.3185 44.016L42.833 44.8735L42.8371 44.871L42.3185 44.016ZM46.1265 41.2L45.4725 40.4434L45.4662 40.449L46.1265 41.2ZM49.0065 38.064L48.1744 37.5093L48.1717 37.5134L49.0065 38.064ZM49.3265 38.192L50.1265 38.792L50.1806 38.7199L50.2209 38.6392L49.3265 38.192ZM45.8705 42L45.2139 41.2457L45.207 41.2518L45.8705 42ZM41.8065 44.88L41.3041 44.0154L41.299 44.0184L41.8065 44.88ZM36.9425 39.984L37.8369 40.4312L36.9425 39.984ZM39.3105 35.504L40.1828 35.993L39.3105 35.504ZM40.1105 31.472L39.3512 32.1228H39.3512L40.1105 31.472ZM34.4785 33.584L35.1341 34.3392L35.1388 34.335L34.4785 33.584ZM30.4465 37.808L31.2763 38.3662L31.281 38.3591L30.4465 37.808ZM26.3505 45.808L27.3206 46.0505L27.3264 46.0275L27.3311 46.0041L26.3505 45.808ZM24.7505 46.16L24.993 47.1301L24.7505 46.16ZM25.1025 42.768L24.2102 42.3166L25.1025 42.768ZM27.5665 38.064L28.4433 38.5448L28.4479 38.5365L28.4523 38.528L27.5665 38.064ZM36.8448 26.0338C38.6019 24.5767 40.1381 23.2555 41.4521 22.0707L40.1129 20.5853C38.8243 21.7472 37.3098 23.05 35.5682 24.4942L36.8448 26.0338ZM41.4528 22.0701C42.8026 20.8509 44.2219 19.431 45.7104 17.8131L44.2386 16.4589C42.7831 18.041 41.4077 19.4158 40.1122 20.5859L41.4528 22.0701ZM45.7056 17.8183C47.2244 16.191 48.4854 14.6472 49.4807 13.1873L47.8283 12.0607C46.9036 13.4168 45.7113 14.881 44.2434 16.4537L45.7056 17.8183ZM49.4846 13.1816C50.4878 11.6879 51.3219 10.0743 51.9878 8.34298L50.1212 7.62502C49.5071 9.22165 48.7412 10.7014 47.8244 12.0664L49.4846 13.1816ZM51.9894 8.33901C52.6657 6.55787 53.0145 4.81614 53.0145 3.12H51.0145C51.0145 4.53852 50.7233 6.03946 50.1196 7.62899L51.9894 8.33901ZM53.0145 3.12C53.0145 2.62395 52.9123 2.12424 52.6342 1.68712L50.9468 2.76088C50.9673 2.79309 51.0145 2.89071 51.0145 3.12H53.0145ZM52.6543 1.72013C52.3594 1.21465 51.8563 0.839996 51.1825 0.839996V2.84C51.1349 2.84 51.062 2.82536 50.9925 2.78148C50.9297 2.74181 50.9142 2.70632 50.9267 2.72787L52.6543 1.72013ZM51.1825 0.839996C50.7073 0.839996 50.2636 1.00788 49.8755 1.23143C49.4829 1.4575 49.0897 1.77353 48.697 2.15158C47.9125 2.90676 47.0367 4.00097 46.0714 5.40012L47.7176 6.53588C48.651 5.18302 49.4392 4.21323 50.084 3.59242C50.406 3.28247 50.6688 3.08249 50.8736 2.96457C51.0827 2.84411 51.1777 2.84 51.1825 2.84V0.839996ZM46.0735 5.39712C44.1429 8.17365 42.1157 11.6161 39.9907 15.7158L41.7663 16.6362C43.8653 12.5866 45.8488 9.22368 47.7155 6.53887L46.0735 5.39712ZM39.9891 15.7188L35.3171 24.8068L37.0959 25.7212L41.7679 16.6332L39.9891 15.7188ZM31.9739 27.9727C29.7982 29.5405 28.1654 30.7125 27.0744 31.4895C26.5284 31.8783 26.1207 32.1664 25.8494 32.3551C25.7128 32.4501 25.616 32.5164 25.5551 32.5567C25.5228 32.5782 25.5107 32.5856 25.5117 32.585C25.5128 32.5844 25.5172 32.5817 25.5241 32.5778C25.5299 32.5745 25.5443 32.5665 25.5642 32.5567C25.5754 32.5511 25.6282 32.5248 25.701 32.5019C25.7327 32.492 25.8213 32.4651 25.9391 32.458C26.0051 32.454 26.3877 32.431 26.7056 32.7489L25.2914 34.1631C25.6096 34.4813 25.9929 34.4584 26.0597 34.4544C26.1783 34.4472 26.2681 34.4202 26.3012 34.4097C26.3768 34.386 26.4334 34.358 26.4495 34.3501C26.493 34.3286 26.529 34.3071 26.5441 34.298C26.5815 34.2754 26.6229 34.2485 26.6609 34.2233C26.7407 34.1703 26.8522 34.0939 26.9916 33.9969C27.2723 33.8016 27.6873 33.5084 28.2346 33.1185C29.3303 32.3382 30.9668 31.1635 33.1431 29.5953L31.9739 27.9727ZM25.9985 32.456C26.2105 32.456 26.5149 32.5418 26.7265 32.824C26.8975 33.0521 26.9025 33.2745 26.9025 33.328H24.9025C24.9025 33.4668 24.9235 33.7533 25.1265 34.024C25.3701 34.3488 25.7225 34.456 25.9985 34.456V32.456ZM26.9025 33.328C26.9025 33.5508 26.8154 33.7135 26.7505 33.8C26.7192 33.8418 26.6911 33.869 26.6749 33.8834C26.6663 33.891 26.6597 33.8963 26.6555 33.8994C26.6534 33.901 26.6518 33.9022 26.6508 33.903C26.6502 33.9033 26.6499 33.9036 26.6496 33.9038C26.6495 33.9039 26.6494 33.9039 26.6493 33.904C26.6493 33.904 26.6492 33.904 26.6492 33.904C26.6492 33.904 26.6492 33.904 26.6492 33.904L25.5398 32.2399C25.3514 32.3655 24.9025 32.7118 24.9025 33.328H26.9025ZM26.6808 33.8821C30.5287 31.0972 32.8662 29.3669 33.6445 28.722L32.3685 27.182C31.6535 27.7744 29.383 29.4575 25.5082 32.2619L26.6808 33.8821ZM33.8911 28.4184L39.4591 17.8584L37.6899 16.9256L32.1219 27.4856L33.8911 28.4184ZM39.4583 17.8599C39.653 17.4922 40.0713 16.6877 40.7107 15.4514L38.9343 14.5326C38.2937 15.771 37.88 16.5665 37.6907 16.9241L39.4583 17.8599ZM40.7107 15.4514C41.351 14.2135 41.7943 13.3693 42.0444 12.9109L40.2886 11.9531C40.0267 12.4334 39.574 13.2958 38.9343 14.5326L40.7107 15.4514ZM42.0274 12.9407C42.313 12.4575 42.7458 11.6889 43.3223 10.6426L41.5707 9.67739C40.9952 10.7217 40.5747 11.4678 40.3056 11.9233L42.0274 12.9407ZM43.3147 10.6561C43.9031 9.62655 44.389 8.87164 44.7751 8.36971L43.1899 7.15029C42.7226 7.75769 42.1846 8.60279 41.5783 9.66386L43.3147 10.6561ZM44.7861 8.35523C45.2057 7.78874 45.7225 7.11365 46.3376 6.32888L44.7634 5.09512C44.1412 5.88902 43.6127 6.57925 43.1789 7.16477L44.7861 8.35523ZM46.336 6.33087C47.3831 5.00189 48.6348 3.81938 50.0965 2.78402L48.9405 1.15197C47.3302 2.29262 45.9366 3.60611 44.765 5.09313L46.336 6.33087ZM50.1204 2.76661C51.5114 1.71831 52.623 1.304 53.4865 1.304V-0.696003C52.0034 -0.696003 50.4696 -0.000984192 48.9166 1.16939L50.1204 2.76661ZM53.4865 1.304C53.5133 1.304 53.5228 1.30679 53.5193 1.30596C53.515 1.30491 53.5012 1.30078 53.4828 1.29018C53.4641 1.27944 53.4493 1.26687 53.4394 1.25632C53.4302 1.24637 53.4302 1.24351 53.4361 1.25459L55.2009 0.313407C55.0395 0.0108185 54.8036 -0.25675 54.4822 -0.442188C54.1639 -0.625831 53.8189 -0.696003 53.4865 -0.696003V1.304ZM53.4361 1.25459C53.546 1.4605 53.5745 1.6091 53.5745 1.712H55.5745C55.5745 1.21756 55.4324 0.747489 55.2009 0.313407L53.4361 1.25459ZM53.5745 1.712C53.5745 4.94473 52.1234 8.47301 49.0277 12.3167L50.5853 13.5713C53.8469 9.52165 55.5745 5.56193 55.5745 1.712H53.5745ZM49.0281 12.3162C47.9739 13.6234 46.9769 14.7775 46.037 15.7801L47.496 17.1479C48.4761 16.1025 49.5058 14.9099 50.5849 13.5718L49.0281 12.3162ZM46.0293 15.7883C45.1195 16.7809 43.95 17.9201 42.5147 19.2076L43.8503 20.6964C45.3163 19.3812 46.5362 18.1951 47.5037 17.1397L46.0293 15.7883ZM42.5116 19.2105C40.7385 20.8147 38.2579 22.9141 35.0635 25.5122L36.3255 27.0638C39.5311 24.4566 42.0425 22.332 43.8534 20.6935L42.5116 19.2105ZM34.7988 25.8433L30.2548 34.9953L32.0462 35.8847L36.5902 26.7327L34.7988 25.8433ZM31.8576 36.1471C32.72 35.2848 33.6783 34.4496 34.734 33.6424L33.5191 32.0536C32.3987 32.9104 31.373 33.8032 30.4434 34.7329L31.8576 36.1471ZM34.7265 33.648C35.8298 32.8205 36.6514 32.2472 37.2055 31.9108L36.1675 30.2012C35.5269 30.5901 34.6418 31.2115 33.5265 32.048L34.7265 33.648ZM37.2028 31.9124C38.5848 31.0792 39.6473 30.744 40.4305 30.744V28.744C39.123 28.744 37.6896 29.2835 36.1702 30.1996L37.2028 31.9124ZM40.4305 30.744C40.8402 30.744 41.1137 30.876 41.3399 31.1362L42.8491 29.8238C42.222 29.1026 41.3862 28.744 40.4305 28.744V30.744ZM41.3399 31.1362C41.5644 31.3943 41.7345 31.8072 41.7345 32.496H43.7345C43.7345 31.4782 43.478 30.547 42.8491 29.8238L41.3399 31.1362ZM41.7345 32.496C41.7345 33.0815 41.4645 34.0257 40.7575 35.398L42.5355 36.314C43.2792 34.8703 43.7345 33.5745 43.7345 32.496H41.7345ZM40.7604 35.3925C40.0302 36.7885 39.3004 38.2374 38.571 39.7391L40.37 40.6129C41.0913 39.128 41.8121 37.6969 42.5326 36.3195L40.7604 35.3925ZM38.571 39.7391C37.8096 41.3068 37.3825 42.763 37.3825 44.08H39.3825C39.3825 43.1783 39.6808 42.0319 40.37 40.6129L38.571 39.7391ZM37.3825 44.08C37.3825 44.5682 37.4875 45.1211 37.8727 45.5576C38.2789 46.0181 38.8336 46.168 39.3425 46.168V44.168C39.2745 44.168 39.2589 44.1581 39.2759 44.1645C39.2851 44.168 39.3009 44.1752 39.3198 44.1881C39.339 44.2011 39.357 44.217 39.3723 44.2344C39.4044 44.2707 39.4077 44.2935 39.4019 44.2738C39.3951 44.2509 39.3825 44.191 39.3825 44.08H37.3825ZM39.3425 46.168C40.3401 46.168 41.536 45.6517 42.833 44.8735L41.804 43.1585C40.541 43.9163 39.7529 44.168 39.3425 44.168V46.168ZM42.8371 44.871C44.1926 44.0488 45.509 43.0746 46.7868 41.951L45.4662 40.449C44.2693 41.5014 43.0471 42.4045 41.7999 43.161L42.8371 44.871ZM46.7805 41.9565C48.084 40.8298 49.1142 39.7169 49.8413 38.6146L48.1717 37.5134C47.5761 38.4164 46.6864 39.3942 45.4725 40.4435L46.7805 41.9565ZM49.8386 38.6187C49.8386 38.6187 49.8386 38.6187 49.8385 38.6187C49.8385 38.6187 49.8385 38.6188 49.8385 38.6188C49.8384 38.6189 49.8384 38.619 49.8383 38.6191C49.8381 38.6193 49.8378 38.6197 49.8375 38.6203C49.8367 38.6213 49.8356 38.6229 49.8339 38.625C49.8308 38.6292 49.8255 38.6358 49.8179 38.6444C49.8035 38.6606 49.7763 38.6887 49.7345 38.72C49.648 38.7849 49.4853 38.872 49.2625 38.872V36.872C48.6463 36.872 48.3 37.3209 48.1744 37.5093L49.8386 38.6187ZM49.2625 38.872C49.209 38.872 48.9866 38.867 48.7585 38.696C48.4763 38.4844 48.3905 38.18 48.3905 37.968H50.3905C50.3905 37.692 50.2833 37.3396 49.9585 37.096C49.6878 36.893 49.4013 36.872 49.2625 36.872V38.872ZM48.3905 37.968C48.3905 37.8898 48.4034 37.831 48.413 37.7973C48.4226 37.7635 48.4318 37.7454 48.4321 37.7448L50.2209 38.6392C50.3018 38.4776 50.3905 38.2446 50.3905 37.968H48.3905ZM48.5265 37.592C47.4065 39.0853 46.3013 40.2993 45.214 41.2457L46.527 42.7543C47.7437 41.6954 48.9425 40.3707 50.1265 38.792L48.5265 37.592ZM45.207 41.2518C44.135 42.2024 42.8368 43.1248 41.3041 44.0154L42.3089 45.7446C43.9336 44.8006 45.3446 43.8029 46.534 42.7482L45.207 41.2518ZM41.299 44.0184C39.7935 44.9052 38.6904 45.256 37.9345 45.256V47.256C39.2266 47.256 40.7048 46.6895 42.314 45.7416L41.299 44.0184ZM37.9345 45.256C37.3861 45.256 37.1522 45.1107 37.0388 44.9874C36.9108 44.848 36.7585 44.5432 36.7585 43.888H34.7585C34.7585 44.8115 34.9689 45.6906 35.5662 46.3406C36.1782 47.0066 37.0323 47.256 37.9345 47.256V45.256ZM36.7585 43.888C36.7585 43.0936 37.0736 41.9579 37.8369 40.4312L36.0481 39.5368C35.2328 41.1674 34.7585 42.6344 34.7585 43.888H36.7585ZM37.8369 40.4312C38.6199 38.8654 39.4018 37.3861 40.1828 35.993L38.4382 35.015C37.6405 36.438 36.8438 37.9453 36.0481 39.5368L37.8369 40.4312ZM40.1828 35.993C40.5871 35.2718 40.9037 34.6448 41.1219 34.1199C41.3265 33.6276 41.4945 33.1119 41.4945 32.656H39.4945C39.4945 32.6558 39.4927 32.712 39.4561 32.8457C39.4212 32.9731 39.3632 33.1404 39.2751 33.3521C39.0987 33.7765 38.8232 34.3282 38.4382 35.015L40.1828 35.993ZM41.4945 32.656C41.4945 31.9876 41.3167 31.3426 40.8698 30.8212L39.3512 32.1228C39.4163 32.1987 39.4945 32.343 39.4945 32.656H41.4945ZM40.8698 30.8212C40.4063 30.2805 39.7771 30.024 39.0865 30.024V32.024C39.2492 32.024 39.3027 32.0662 39.3512 32.1228L40.8698 30.8212ZM39.0865 30.024C38.2823 30.024 37.4425 30.3223 36.6009 30.7898C35.7487 31.2633 34.82 31.9523 33.8182 32.833L35.1388 34.335C36.0784 33.509 36.8883 32.9181 37.5721 32.5382C38.2665 32.1524 38.76 32.024 39.0865 32.024V30.024ZM33.8229 32.8289C31.8627 34.5306 30.4354 36.0102 29.612 37.2569L31.281 38.3591C31.951 37.3445 33.2116 36.0081 35.1341 34.3391L33.8229 32.8289ZM29.6168 37.2498C27.2462 40.7737 25.7753 43.5851 25.3699 45.6119L27.3311 46.0041C27.6511 44.4042 28.9108 41.8823 31.2762 38.3662L29.6168 37.2498ZM25.3804 45.5655C25.415 45.427 25.4871 45.3052 25.5794 45.2129C25.6652 45.1271 25.7473 45.0874 25.7871 45.0715C25.8519 45.0456 25.8492 45.064 25.7105 45.064V47.064C25.9558 47.064 26.2518 47.0397 26.5299 46.9285C26.8343 46.8067 27.1985 46.5392 27.3206 46.0505L25.3804 45.5655ZM25.7105 45.064C25.2782 45.064 24.8703 45.0993 24.508 45.1899L24.993 47.1301C25.1427 47.0927 25.3748 47.064 25.7105 47.064V45.064ZM24.508 45.1899C24.3843 45.2208 24.2955 45.2417 24.237 45.2542C24.2072 45.2606 24.193 45.2631 24.1901 45.2636C24.1887 45.2638 24.1959 45.2626 24.2089 45.2611C24.2176 45.2601 24.2532 45.256 24.3025 45.256V47.256C24.4517 47.256 24.6126 47.2191 24.656 47.2098C24.7468 47.1903 24.8607 47.1632 24.993 47.1301L24.508 45.1899ZM24.3025 45.256C24.2125 45.256 24.3291 45.2338 24.4844 45.3546C24.5703 45.4214 24.6391 45.5109 24.6816 45.6101C24.7216 45.7033 24.7265 45.777 24.7265 45.808H22.7265C22.7265 46.188 22.8614 46.626 23.2566 46.9334C23.6039 47.2035 24.0085 47.256 24.3025 47.256V45.256ZM24.7265 45.808C24.7265 45.9228 24.7022 45.9916 24.7116 45.9578C24.7153 45.9446 24.726 45.9102 24.7492 45.8482C24.7951 45.7254 24.8707 45.5452 24.9815 45.3004C25.2019 44.8134 25.5383 44.1218 25.9948 43.2194L24.2102 42.3166C23.7494 43.2275 23.3977 43.9493 23.1595 44.4756C23.041 44.7374 22.9446 44.964 22.8758 45.1478C22.8417 45.2391 22.8094 45.333 22.7844 45.4232C22.7651 45.4928 22.7265 45.6399 22.7265 45.808H24.7265ZM25.9948 43.2194C26.9087 41.4128 27.7248 39.8551 28.4433 38.5448L26.6897 37.5832C25.9576 38.9182 25.1309 40.4965 24.2102 42.3166L25.9948 43.2194ZM28.4523 38.528C31.0378 33.5921 32.6883 30.5252 33.4186 29.2942L31.6984 28.2738C30.9353 29.5602 29.2578 32.6799 26.6807 37.6L28.4523 38.528ZM45.676 41.904L46.6522 42.1209L47.268 39.3498L45.0513 41.1231L45.676 41.904ZM44.396 42.928V43.928H44.7468L45.0207 43.7089L44.396 42.928ZM44.556 42.448L43.8489 41.7409L44.556 42.448ZM45.804 41.456L46.404 42.256L46.6594 42.0644L46.7566 41.7603L45.804 41.456ZM48.012 37.104L47.2 36.5204L48.012 37.104ZM51.02 33.808L51.6506 34.5842L51.6602 34.5762L51.02 33.808ZM53.932 31.824L54.3875 32.7142L54.3956 32.7101L54.4037 32.7058L53.932 31.824ZM57.42 33.36L58.2264 33.9514L58.2354 33.9391L58.244 33.9265L57.42 33.36ZM56.108 34.576L55.4996 33.7824L55.493 33.7874L55.4866 33.7925L56.108 34.576ZM54.316 35.92L54.8852 36.7422L54.8915 36.7378L54.316 35.92ZM51.628 37.744L51.07 36.9141L51.0633 36.9187L51.628 37.744ZM48.492 39.92L47.9145 39.1036L47.6549 39.2873L47.549 39.5872L48.492 39.92ZM48.652 45.008L47.9777 45.7465L47.9855 45.7536L47.9935 45.7606L48.652 45.008ZM55.276 44.432L54.8048 43.55L54.7997 43.5527L55.276 44.432ZM59.692 41.392L60.3447 42.1496L60.3513 42.1439L59.692 41.392ZM62.764 38.064L61.9319 37.5093L61.9292 37.5134L62.764 38.064ZM63.084 38.192L63.876 38.8025L63.9351 38.7258L63.9784 38.6392L63.084 38.192ZM54.508 45.36L54.9361 46.2637L54.9491 46.2576L54.962 46.251L54.508 45.36ZM48.748 39.344L47.8174 38.978L46.5725 42.1435L49.3325 40.1554L48.748 39.344ZM54.124 35.152L54.8011 35.888L54.8089 35.8806L54.124 35.152ZM51.66 34.256L52.4409 34.8807L52.4452 34.8753L51.66 34.256ZM45.0513 41.1231L43.7713 42.1471L45.0207 43.7089L46.3007 42.6849L45.0513 41.1231ZM44.396 41.928C44.5603 41.928 44.7487 41.972 44.9227 42.0879C45.0904 42.1998 45.1884 42.3408 45.2424 42.4488C45.3362 42.6364 45.332 42.7916 45.332 42.8H43.332C43.332 42.8937 43.3384 43.1129 43.4536 43.3432C43.5182 43.4725 43.6296 43.6296 43.8133 43.752C44.0033 43.8787 44.2104 43.928 44.396 43.928V41.928ZM45.332 42.8C45.332 42.9233 45.3054 43.0185 45.2843 43.0757C45.2632 43.1332 45.241 43.1703 45.2317 43.1849C45.2152 43.2107 45.2164 43.2018 45.2631 43.1551L43.8489 41.7409C43.7463 41.8435 43.6354 41.968 43.5443 42.1111C43.463 42.239 43.332 42.4821 43.332 42.8H45.332ZM45.2631 43.1551C45.3507 43.0675 45.6996 42.7843 46.404 42.256L45.204 40.656C44.5431 41.1517 44.06 41.5298 43.8489 41.7409L45.2631 43.1551ZM46.7566 41.7603C47.214 40.3284 47.9013 38.9715 48.824 37.6876L47.2 36.5204C46.1601 37.9672 45.3754 39.5116 44.8514 41.1517L46.7566 41.7603ZM48.824 37.6876C49.7671 36.3756 50.7111 35.3474 51.6506 34.5841L50.3894 33.0319C49.2809 33.9326 48.2196 35.1018 47.2 36.5204L48.824 37.6876ZM51.6602 34.5762C52.643 33.7572 53.552 33.1417 54.3875 32.7142L53.4765 30.9338C52.4774 31.445 51.445 32.1521 50.3798 33.0398L51.6602 34.5762ZM54.4037 32.7058C55.2891 32.2322 55.8321 32.088 56.108 32.088V30.088C55.3173 30.088 54.4095 30.4345 53.4603 30.9422L54.4037 32.7058ZM56.108 32.088C56.5625 32.088 56.7198 32.1802 56.7463 32.2006C56.751 32.2042 56.7488 32.2018 56.7504 32.2056C56.7547 32.2154 56.772 32.2617 56.772 32.368H58.772C58.772 31.7067 58.5436 31.0599 57.9657 30.6154C57.4376 30.2091 56.7629 30.088 56.108 30.088V32.088ZM56.772 32.368C56.772 32.4337 56.7495 32.5701 56.596 32.7935L58.244 33.9265C58.5598 33.4673 58.772 32.9423 58.772 32.368H56.772ZM56.6136 32.7686C56.4671 32.9684 56.1251 33.3028 55.4996 33.7824L56.7164 35.3696C57.3709 34.8679 57.9035 34.3916 58.2264 33.9514L56.6136 32.7686ZM55.4866 33.7925C54.8811 34.2727 54.2991 34.7091 53.7405 35.1022L54.8915 36.7378C55.4849 36.3203 56.0975 35.8606 56.7294 35.3595L55.4866 33.7925ZM53.7468 35.0978C53.1981 35.4777 52.3069 36.0824 51.07 36.9142L52.186 38.5738C53.4237 37.7416 54.3245 37.1303 54.8852 36.7422L53.7468 35.0978ZM51.0633 36.9187C49.8445 37.7526 48.7947 38.481 47.9145 39.1036L49.0695 40.7364C49.9387 40.1216 50.9795 39.3994 52.1927 38.5693L51.0633 36.9187ZM47.549 39.5872C47.1356 40.7585 46.916 41.8854 46.916 42.96H48.916C48.916 42.1573 49.0804 41.2575 49.435 40.2528L47.549 39.5872ZM46.916 42.96C46.916 44.0476 47.2099 45.0454 47.9777 45.7465L49.3263 44.2695C49.1128 44.0746 48.916 43.707 48.916 42.96H46.916ZM47.9935 45.7606C48.7802 46.449 49.9249 46.68 51.18 46.68V44.68C50.0885 44.68 49.5478 44.463 49.3105 44.2554L47.9935 45.7606ZM51.18 46.68C52.6002 46.68 54.1329 46.1885 55.7523 45.3113L54.7997 43.5527C53.3471 44.3395 52.1491 44.68 51.18 44.68V46.68ZM55.7472 45.314C57.3718 44.4461 58.9043 43.3905 60.3447 42.1496L59.0393 40.6344C57.7063 41.7828 56.2949 42.7539 54.8048 43.55L55.7472 45.314ZM60.3513 42.1439C61.7734 40.8968 62.8694 39.7205 63.5988 38.6146L61.9292 37.5134C61.336 38.4129 60.3839 39.4552 59.0327 40.6401L60.3513 42.1439ZM63.5961 38.6187C63.5961 38.6187 63.596 38.6187 63.596 38.6187C63.596 38.6187 63.596 38.6188 63.596 38.6188C63.5959 38.6189 63.5959 38.619 63.5958 38.6191C63.5956 38.6193 63.5953 38.6197 63.595 38.6203C63.5942 38.6213 63.593 38.6229 63.5914 38.625C63.5883 38.6292 63.583 38.6358 63.5754 38.6444C63.561 38.6606 63.5338 38.6887 63.492 38.72C63.4055 38.7849 63.2428 38.872 63.02 38.872V36.872C62.4038 36.872 62.0575 37.3209 61.9319 37.5093L63.5961 38.6187ZM63.02 38.872C62.9665 38.872 62.7441 38.867 62.516 38.696C62.2338 38.4844 62.148 38.18 62.148 37.968H64.148C64.148 37.692 64.0408 37.3396 63.716 37.096C63.4453 36.893 63.1588 36.872 63.02 36.872V38.872ZM62.148 37.968C62.148 37.8898 62.1609 37.831 62.1705 37.7973C62.1801 37.7635 62.1893 37.7454 62.1896 37.7448L63.9784 38.6392C64.0593 38.4776 64.148 38.2446 64.148 37.968H62.148ZM62.292 37.5815C60.0115 40.54 57.267 42.8318 54.054 44.469L54.962 46.251C58.4477 44.4749 61.4205 41.988 63.876 38.8025L62.292 37.5815ZM54.0799 44.4563C52.57 45.1715 51.1371 45.512 49.772 45.512V47.512C51.479 47.512 53.2033 47.0845 54.9361 46.2637L54.0799 44.4563ZM49.772 45.512C48.4056 45.512 47.5582 45.2703 47.0766 44.9374C46.6617 44.6506 46.42 44.2305 46.42 43.504H44.42C44.42 44.7828 44.9036 45.8667 45.9394 46.5826C46.9084 47.2524 48.2371 47.512 49.772 47.512V45.512ZM46.42 43.504C46.42 43.3296 46.4798 42.8968 46.6522 42.1209L44.6998 41.6871C44.5309 42.4472 44.42 43.0811 44.42 43.504H46.42ZM49.3325 40.1554C51.8543 38.3388 53.6876 36.9123 54.8011 35.8879L53.4469 34.4161C52.4271 35.3543 50.6763 36.7225 48.1635 38.5326L49.3325 40.1554ZM54.8089 35.8806C55.3694 35.3538 55.8259 34.8529 56.149 34.3811C56.4583 33.9296 56.724 33.3924 56.724 32.816H54.724C54.724 32.7943 54.7231 32.9237 54.499 33.2509C54.2888 33.5578 53.9453 33.9475 53.4391 34.4234L54.8089 35.8806ZM56.724 32.816C56.724 32.4215 56.6441 31.9392 56.3114 31.5461C55.9516 31.1209 55.4566 30.984 55.02 30.984V32.984C55.041 32.984 55.0146 32.9873 54.9615 32.9664C54.9023 32.9431 54.8372 32.9001 54.7846 32.8379C54.7351 32.7794 54.7198 32.7313 54.7176 32.7235C54.7161 32.7183 54.724 32.7446 54.724 32.816H56.724ZM55.02 30.984C53.4884 30.984 52.1089 32.0721 50.8748 33.6367L52.4452 34.8753C53.6004 33.4106 54.4609 32.984 55.02 32.984V30.984ZM50.8791 33.6313C49.6178 35.208 48.5983 36.9923 47.8174 38.978L49.6786 39.71C50.3911 37.8983 51.3129 36.2907 52.4409 34.8807L50.8791 33.6313ZM59.551 41.904L60.5272 42.1209L61.143 39.3498L58.9263 41.1231L59.551 41.904ZM58.271 42.928V43.928H58.6218L58.8957 43.7089L58.271 42.928ZM58.431 42.448L57.7239 41.7409L58.431 42.448ZM59.679 41.456L60.279 42.256L60.5344 42.0644L60.6316 41.7603L59.679 41.456ZM61.887 37.104L61.075 36.5204L61.887 37.104ZM64.895 33.808L65.5256 34.5842L65.5352 34.5762L64.895 33.808ZM67.807 31.824L68.2625 32.7142L68.2706 32.7101L68.2787 32.7058L67.807 31.824ZM71.295 33.36L72.1014 33.9514L72.1104 33.9391L72.119 33.9265L71.295 33.36ZM69.983 34.576L69.3746 33.7824L69.368 33.7874L69.3616 33.7925L69.983 34.576ZM68.191 35.92L68.7602 36.7422L68.7665 36.7378L68.191 35.92ZM65.503 37.744L64.945 36.9141L64.9383 36.9187L65.503 37.744ZM62.367 39.92L61.7895 39.1036L61.5299 39.2873L61.424 39.5872L62.367 39.92ZM62.527 45.008L61.8527 45.7465L61.8605 45.7536L61.8685 45.7606L62.527 45.008ZM69.151 44.432L68.6798 43.55L68.6747 43.5527L69.151 44.432ZM73.567 41.392L74.2197 42.1496L74.2263 42.1439L73.567 41.392ZM76.639 38.064L75.8069 37.5093L75.8042 37.5134L76.639 38.064ZM76.959 38.192L77.751 38.8025L77.8101 38.7258L77.8534 38.6392L76.959 38.192ZM68.383 45.36L68.8111 46.2637L68.8241 46.2576L68.837 46.251L68.383 45.36ZM62.623 39.344L61.6924 38.978L60.4475 42.1435L63.2075 40.1554L62.623 39.344ZM67.999 35.152L68.6761 35.888L68.6839 35.8806L67.999 35.152ZM65.535 34.256L66.3159 34.8807L66.3202 34.8753L65.535 34.256ZM58.9263 41.1231L57.6463 42.1471L58.8957 43.7089L60.1757 42.6849L58.9263 41.1231ZM58.271 41.928C58.4353 41.928 58.6237 41.972 58.7977 42.0879C58.9654 42.1998 59.0634 42.3408 59.1174 42.4488C59.2112 42.6364 59.207 42.7916 59.207 42.8H57.207C57.207 42.8937 57.2134 43.1129 57.3286 43.3432C57.3932 43.4725 57.5046 43.6296 57.6883 43.752C57.8783 43.8787 58.0854 43.928 58.271 43.928V41.928ZM59.207 42.8C59.207 42.9233 59.1804 43.0185 59.1593 43.0757C59.1382 43.1332 59.116 43.1703 59.1067 43.1849C59.0902 43.2107 59.0914 43.2018 59.1381 43.1551L57.7239 41.7409C57.6213 41.8435 57.5104 41.968 57.4193 42.1111C57.338 42.239 57.207 42.4821 57.207 42.8H59.207ZM59.1381 43.1551C59.2257 43.0675 59.5746 42.7843 60.279 42.256L59.079 40.656C58.4181 41.1517 57.935 41.5298 57.7239 41.7409L59.1381 43.1551ZM60.6316 41.7603C61.089 40.3284 61.7763 38.9715 62.699 37.6876L61.075 36.5204C60.0351 37.9672 59.2504 39.5116 58.7264 41.1517L60.6316 41.7603ZM62.699 37.6876C63.6421 36.3756 64.5861 35.3474 65.5256 34.5841L64.2644 33.0319C63.1559 33.9326 62.0946 35.1018 61.075 36.5204L62.699 37.6876ZM65.5352 34.5762C66.518 33.7572 67.427 33.1417 68.2625 32.7142L67.3515 30.9338C66.3524 31.445 65.32 32.1521 64.2548 33.0398L65.5352 34.5762ZM68.2787 32.7058C69.1641 32.2322 69.7071 32.088 69.983 32.088V30.088C69.1923 30.088 68.2845 30.4345 67.3354 30.9422L68.2787 32.7058ZM69.983 32.088C70.4375 32.088 70.5948 32.1802 70.6213 32.2006C70.626 32.2042 70.6238 32.2018 70.6254 32.2056C70.6297 32.2154 70.647 32.2617 70.647 32.368H72.647C72.647 31.7067 72.4186 31.0599 71.8407 30.6154C71.3126 30.2091 70.6379 30.088 69.983 30.088V32.088ZM70.647 32.368C70.647 32.4337 70.6245 32.5701 70.471 32.7935L72.119 33.9265C72.4348 33.4673 72.647 32.9423 72.647 32.368H70.647ZM70.4886 32.7686C70.3421 32.9684 70.0001 33.3028 69.3746 33.7824L70.5914 35.3696C71.2459 34.8679 71.7785 34.3916 72.1014 33.9514L70.4886 32.7686ZM69.3616 33.7925C68.7561 34.2727 68.1741 34.7091 67.6155 35.1022L68.7665 36.7378C69.3599 36.3203 69.9725 35.8606 70.6044 35.3595L69.3616 33.7925ZM67.6218 35.0978C67.0731 35.4777 66.1819 36.0824 64.945 36.9142L66.061 38.5738C67.2987 37.7416 68.1995 37.1303 68.7602 36.7422L67.6218 35.0978ZM64.9383 36.9187C63.7195 37.7526 62.6697 38.481 61.7895 39.1036L62.9445 40.7364C63.8137 40.1216 64.8545 39.3994 66.0677 38.5693L64.9383 36.9187ZM61.424 39.5872C61.0106 40.7585 60.791 41.8854 60.791 42.96H62.791C62.791 42.1573 62.9554 41.2575 63.31 40.2528L61.424 39.5872ZM60.791 42.96C60.791 44.0476 61.0849 45.0454 61.8527 45.7465L63.2013 44.2695C62.9878 44.0746 62.791 43.707 62.791 42.96H60.791ZM61.8685 45.7606C62.6552 46.449 63.7999 46.68 65.055 46.68V44.68C63.9635 44.68 63.4228 44.463 63.1855 44.2554L61.8685 45.7606ZM65.055 46.68C66.4752 46.68 68.0079 46.1885 69.6273 45.3113L68.6747 43.5527C67.2221 44.3395 66.0241 44.68 65.055 44.68V46.68ZM69.6222 45.314C71.2468 44.4461 72.7794 43.3905 74.2197 42.1496L72.9143 40.6344C71.5813 41.7828 70.1699 42.7539 68.6798 43.55L69.6222 45.314ZM74.2263 42.1439C75.6484 40.8968 76.7444 39.7205 77.4738 38.6146L75.8042 37.5134C75.211 38.4129 74.2589 39.4552 72.9077 40.6401L74.2263 42.1439ZM77.4711 38.6187C77.4711 38.6187 77.471 38.6187 77.471 38.6187C77.471 38.6187 77.471 38.6188 77.471 38.6188C77.4709 38.6189 77.4709 38.619 77.4708 38.6191C77.4706 38.6193 77.4703 38.6197 77.47 38.6203C77.4692 38.6213 77.468 38.6229 77.4664 38.625C77.4633 38.6292 77.458 38.6358 77.4504 38.6444C77.436 38.6606 77.4088 38.6887 77.367 38.72C77.2805 38.7849 77.1178 38.872 76.895 38.872V36.872C76.2788 36.872 75.9325 37.3209 75.8069 37.5093L77.4711 38.6187ZM76.895 38.872C76.8415 38.872 76.6191 38.867 76.391 38.696C76.1088 38.4844 76.023 38.18 76.023 37.968H78.023C78.023 37.692 77.9158 37.3396 77.591 37.096C77.3203 36.893 77.0338 36.872 76.895 36.872V38.872ZM76.023 37.968C76.023 37.8898 76.0359 37.831 76.0455 37.7973C76.0551 37.7635 76.0643 37.7454 76.0646 37.7448L77.8534 38.6392C77.9343 38.4776 78.023 38.2446 78.023 37.968H76.023ZM76.167 37.5815C73.8865 40.54 71.142 42.8318 67.929 44.469L68.837 46.251C72.3227 44.4749 75.2955 41.988 77.751 38.8025L76.167 37.5815ZM67.9549 44.4563C66.445 45.1715 65.0121 45.512 63.647 45.512V47.512C65.354 47.512 67.0783 47.0845 68.8111 46.2637L67.9549 44.4563ZM63.647 45.512C62.2806 45.512 61.4332 45.2703 60.9516 44.9374C60.5367 44.6506 60.295 44.2305 60.295 43.504H58.295C58.295 44.7828 58.7786 45.8667 59.8144 46.5826C60.7834 47.2524 62.1121 47.512 63.647 47.512V45.512ZM60.295 43.504C60.295 43.3296 60.3548 42.8968 60.5272 42.1209L58.5748 41.6871C58.4059 42.4472 58.295 43.0811 58.295 43.504H60.295ZM63.2075 40.1554C65.7293 38.3388 67.5626 36.9123 68.6761 35.8879L67.3219 34.4161C66.3021 35.3543 64.5513 36.7225 62.0385 38.5326L63.2075 40.1554ZM68.6839 35.8806C69.2444 35.3538 69.7009 34.8529 70.024 34.3811C70.3333 33.9296 70.599 33.3924 70.599 32.816H68.599C68.599 32.7943 68.5981 32.9237 68.374 33.2509C68.1638 33.5578 67.8203 33.9475 67.3141 34.4234L68.6839 35.8806ZM70.599 32.816C70.599 32.4215 70.5191 31.9392 70.1864 31.5461C69.8266 31.1209 69.3316 30.984 68.895 30.984V32.984C68.916 32.984 68.8896 32.9873 68.8365 32.9664C68.7773 32.9431 68.7122 32.9001 68.6596 32.8379C68.6101 32.7794 68.5948 32.7313 68.5926 32.7235C68.5911 32.7183 68.599 32.7446 68.599 32.816H70.599ZM68.895 30.984C67.3634 30.984 65.9839 32.0721 64.7498 33.6367L66.3202 34.8753C67.4754 33.4106 68.3359 32.984 68.895 32.984V30.984ZM64.7541 33.6313C63.4928 35.208 62.4733 36.9923 61.6924 38.978L63.5536 39.71C64.2661 37.8983 65.1879 36.2907 66.3159 34.8807L64.7541 33.6313ZM83.09 31.664L82.2956 32.2715L83.2155 33.4743L83.9606 32.1561L83.09 31.664ZM83.922 30.192L84.7926 30.6841L85.9503 28.6358L83.6721 29.2237L83.922 30.192ZM82.45 30.704L81.9794 29.8216L81.0935 30.2941L81.5695 31.1781L82.45 30.704ZM79.186 31.6V30.6H79.087L78.9899 30.6194L79.186 31.6ZM78.546 31.728V32.728H78.645L78.7421 32.7086L78.546 31.728ZM84.498 29.104L84.8157 30.0522L85.1869 29.9278L85.375 29.5844L84.498 29.104ZM81.938 19.088L82.3349 20.0059L82.3464 20.0008L81.938 19.088ZM79.378 20.976L78.6709 20.2689V20.2689L79.378 20.976ZM79.058 21.328L78.2897 20.6878L78.284 20.6948L79.058 21.328ZM79.186 20.528L79.8931 21.2351L79.8991 21.2291L79.905 21.223L79.186 20.528ZM88.786 18.576L88.1371 19.3368L88.1436 19.3424L88.1503 19.3479L88.786 18.576ZM87.442 27.888L86.5524 27.4312L85.2489 29.9696L87.8518 28.8002L87.442 27.888ZM96.946 23.344L97.3955 24.2373L97.3977 24.2362L96.946 23.344ZM103.762 19.504L104.355 20.3094L104.355 20.3091L103.762 19.504ZM105.362 18.512L104.893 17.6288L104.881 17.6352L105.362 18.512ZM105.714 19.312L106.365 20.0713L106.371 20.066L106.377 20.0606L105.714 19.312ZM102.514 21.616L101.971 20.7761L101.965 20.78L102.514 21.616ZM98.386 23.792L98.0146 22.8635L97.9961 22.8709L97.978 22.879L98.386 23.792ZM86.93 28.912L86.522 27.999L86.2142 28.1366L86.0526 28.4323L86.93 28.912ZM84.306 33.712L83.4286 33.2323L83.1554 33.7319L83.4457 34.2218L84.306 33.712ZM85.778 36.208L86.6505 35.7194L86.6453 35.7101L86.6399 35.701L85.778 36.208ZM87.25 38.768L86.3925 39.2825L87.25 38.768ZM91.026 44.784L90.1877 45.3293L90.1915 45.335L91.026 44.784ZM94.45 49.36L95.1707 48.6667L95.166 48.6619L94.45 49.36ZM105.618 49.584L106.226 50.3779L106.278 50.3378L106.325 50.2911L105.618 49.584ZM103.602 51.504L103.19 50.5928L103.183 50.5962L103.175 50.5998L103.602 51.504ZM93.202 51.184L93.7509 50.3481L93.7479 50.3461L93.202 51.184ZM88.658 46.128L87.82 46.6738L87.8237 46.6793L88.658 46.128ZM82.834 36.4L83.7117 35.9207L82.8467 34.3368L81.9623 35.9099L82.834 36.4ZM76.754 46.064L77.4611 46.7711L77.5086 46.7237L77.5492 46.6703L76.754 46.064ZM76.306 46.448L75.7513 45.616L75.7418 45.6223L75.7325 45.6288L76.306 46.448ZM72.338 46.544L71.9169 45.637L71.9037 45.6431L71.8908 45.6496L72.338 46.544ZM73.81 45.488L74.5533 46.157L74.5585 46.1512L74.5636 46.1453L73.81 45.488ZM81.618 34.224L82.4813 34.7286L82.7783 34.2205L82.4783 33.7142L81.618 34.224ZM80.338 32.496L79.5787 33.1468L79.5846 33.1536L79.5906 33.1604L80.338 32.496ZM83.9606 32.1561L84.7926 30.6841L83.0514 29.6999L82.2194 31.1719L83.9606 32.1561ZM83.6721 29.2237C82.9888 29.4001 82.406 29.5942 81.9794 29.8216L82.9206 31.5864C83.134 31.4725 83.5325 31.3253 84.1719 31.1603L83.6721 29.2237ZM81.5695 31.1781C81.7524 31.5177 81.9991 31.8836 82.2956 32.2715L83.8844 31.0565C83.6263 30.719 83.4463 30.4449 83.3305 30.2299L81.5695 31.1781ZM78.9899 30.6194L78.3499 30.7474L78.7421 32.7086L79.3821 32.5806L78.9899 30.6194ZM78.546 30.728C78.6148 30.728 78.8501 30.7459 79.0611 30.9569C79.2721 31.1679 79.29 31.4032 79.29 31.472H77.29C77.29 31.7115 77.3505 32.0748 77.6469 32.3711C77.9432 32.6675 78.3065 32.728 78.546 32.728V30.728ZM79.29 31.472C79.29 31.875 79.0482 32.1086 79.032 32.1253C79.0003 32.158 78.9741 32.1794 78.9613 32.1894C78.9475 32.2002 78.9387 32.206 78.9377 32.2067C78.9366 32.2074 78.9489 32.1994 78.9807 32.1823C79.0112 32.166 79.0525 32.1451 79.1065 32.1195C79.3289 32.0141 79.6874 31.8652 80.1984 31.6703C81.2133 31.2832 82.7495 30.7445 84.8157 30.0522L84.1803 28.1558C82.1079 28.8502 80.5401 29.3994 79.4856 29.8017C78.9619 30.0014 78.5445 30.1726 78.2495 30.3125C78.1069 30.3801 77.9599 30.4557 77.8363 30.5373C77.7778 30.5759 77.6854 30.641 77.5965 30.7327C77.5479 30.7828 77.29 31.045 77.29 31.472H79.29ZM85.375 29.5844C86.3059 27.885 87.0176 26.3888 87.4987 25.1022C87.9746 23.8292 88.25 22.6966 88.25 21.744H86.25C86.25 22.3487 86.0667 23.2214 85.6253 24.4018C85.1891 25.5685 84.5247 26.9737 83.621 28.6236L85.375 29.5844ZM88.25 21.744C88.25 20.5661 88.0126 19.4969 87.3673 18.7099C86.6908 17.885 85.713 17.544 84.626 17.544V19.544C85.2884 19.544 85.6225 19.7363 85.8207 19.9781C86.0501 20.2578 86.25 20.7886 86.25 21.744H88.25ZM84.626 17.544C83.5188 17.544 82.4817 17.7493 81.5296 18.1752L82.3464 20.0008C83.0156 19.7014 83.7705 19.544 84.626 19.544V17.544ZM81.5411 18.1701C80.5927 18.5803 79.6365 19.3033 78.6709 20.2689L80.0851 21.6831C80.9541 20.8141 81.7046 20.2784 82.3349 20.0059L81.5411 18.1701ZM78.6709 20.2689C78.5408 20.399 78.4138 20.539 78.2898 20.6878L79.8262 21.9682C79.9155 21.861 80.0019 21.7663 80.0851 21.6831L78.6709 20.2689ZM78.284 20.6948C78.1995 20.798 78.1545 20.8436 78.1423 20.8548C78.1352 20.8613 78.1603 20.8366 78.2126 20.8047C78.24 20.788 78.289 20.7605 78.3568 20.7356C78.4227 20.7115 78.5328 20.68 78.674 20.68V22.68C78.9661 22.68 79.1781 22.5586 79.2554 22.5113C79.3557 22.45 79.4368 22.3813 79.4937 22.3292C79.6095 22.223 79.7245 22.0926 79.832 21.9612L78.284 20.6948ZM78.674 20.68C78.8079 20.68 79.0776 20.7262 79.2893 20.9732C79.4756 21.1907 79.482 21.411 79.482 21.456H77.482C77.482 21.6503 77.5204 21.9827 77.7707 22.2748C78.0464 22.5964 78.4121 22.68 78.674 22.68V20.68ZM79.482 21.456C79.482 21.5644 79.4615 21.6456 79.4482 21.6885C79.4343 21.7332 79.4205 21.7612 79.4163 21.7695C79.409 21.7836 79.4156 21.7679 79.4547 21.7164C79.532 21.6145 79.6715 21.4567 79.8931 21.2351L78.4789 19.8209C78.2312 20.0686 78.0187 20.3002 77.8613 20.5076C77.7831 20.6108 77.7016 20.7298 77.6357 20.8585C77.5796 20.9684 77.482 21.1842 77.482 21.456H79.482ZM79.905 21.223C81.5835 19.4866 83.5258 18.648 85.778 18.648V16.648C82.9529 16.648 80.5005 17.7294 78.467 19.833L79.905 21.223ZM85.778 18.648C86.9022 18.648 87.6466 18.9185 88.1371 19.3368L89.4349 17.8152C88.4747 16.9961 87.2138 16.648 85.778 16.648V18.648ZM88.1503 19.3479C88.6515 19.7606 88.874 20.2378 88.874 20.848H90.874C90.874 19.6235 90.3712 18.586 89.4217 17.8041L88.1503 19.3479ZM88.874 20.848C88.874 22.1202 88.1727 24.276 86.5524 27.4312L88.3316 28.3448C89.954 25.1854 90.874 22.6478 90.874 20.848H88.874ZM87.8518 28.8002C90.8112 27.4706 93.9926 25.9494 97.3955 24.2373L96.4965 22.4507C93.1154 24.1519 89.9608 25.6601 87.0322 26.9758L87.8518 28.8002ZM97.3977 24.2362C100.804 22.5118 103.148 21.1976 104.355 20.3094L103.169 18.6986C102.115 19.4744 99.9149 20.7202 96.4943 22.4518L97.3977 24.2362ZM104.355 20.3091C104.712 20.0463 105.203 19.7395 105.843 19.3888L104.881 17.6352C104.198 18.0098 103.623 18.3644 103.169 18.6989L104.355 20.3091ZM105.831 19.3951C106.163 19.2188 106.412 19.0964 106.586 19.0207C106.673 18.9826 106.727 18.9628 106.753 18.9542C106.803 18.9384 106.735 18.968 106.61 18.968V16.968C106.411 16.968 106.235 17.0203 106.143 17.0498C106.028 17.0865 105.907 17.1348 105.786 17.1873C105.544 17.2929 105.244 17.4426 104.893 17.6289L105.831 19.3951ZM106.61 18.968C106.603 18.968 106.57 18.9677 106.521 18.9583C106.474 18.9493 106.385 18.927 106.282 18.8682C106.173 18.806 106.049 18.7024 105.956 18.5439C105.864 18.385 105.834 18.2245 105.834 18.096H107.834C107.834 17.691 107.62 17.3294 107.274 17.1318C107.012 16.9818 106.747 16.968 106.61 16.968V18.968ZM105.834 18.096C105.834 17.9213 105.884 17.7997 105.9 17.7632C105.921 17.7168 105.937 17.6932 105.934 17.6976C105.928 17.7068 105.896 17.7499 105.818 17.8345C105.666 18 105.416 18.2404 105.051 18.5634L106.377 20.0606C106.759 19.7223 107.069 19.4294 107.29 19.1895C107.398 19.0714 107.506 18.9439 107.594 18.8144C107.637 18.7494 107.689 18.6645 107.733 18.5648C107.772 18.475 107.834 18.308 107.834 18.096H105.834ZM105.063 18.5527C104.366 19.1504 103.342 19.8905 101.971 20.7761L103.057 22.4559C104.46 21.5495 105.569 20.7535 106.365 20.0713L105.063 18.5527ZM101.965 20.78C100.651 21.6427 99.3338 22.3358 98.0146 22.8635L98.7574 24.7205C100.212 24.1388 101.647 23.3813 103.063 22.452L101.965 20.78ZM97.978 22.879L86.522 27.999L87.338 29.825L98.794 24.705L97.978 22.879ZM86.0526 28.4323L83.4286 33.2323L85.1834 34.1917L87.8074 29.3917L86.0526 28.4323ZM83.4457 34.2218C83.7862 34.7964 84.2762 35.6273 84.9161 36.715L86.6399 35.701C85.9998 34.6127 85.5085 33.7796 85.1663 33.2022L83.4457 34.2218ZM84.9055 36.6966C85.5051 37.7673 86.0012 38.6303 86.3925 39.2825L88.1075 38.2535C87.7308 37.6257 87.2456 36.7821 86.6505 35.7194L84.9055 36.6966ZM86.3925 39.2825C87.488 41.1083 88.7533 43.1241 90.1877 45.3293L91.8643 44.2387C90.44 42.0492 89.188 40.0544 88.1075 38.2535L86.3925 39.2825ZM90.1915 45.335C91.6456 47.5375 92.8308 49.1318 93.734 50.0581L95.166 48.6619C94.4052 47.8816 93.3078 46.4252 91.8605 44.233L90.1915 45.335ZM93.7293 50.0533C95.4926 51.8861 97.4988 52.888 99.73 52.888V50.888C98.1639 50.888 96.6501 50.2046 95.1707 48.6667L93.7293 50.0533ZM99.73 52.888C101.93 52.888 104.101 52.0054 106.226 50.3779L105.01 48.7901C103.124 50.2346 101.37 50.888 99.73 50.888V52.888ZM106.325 50.2911C106.325 50.2914 106.318 50.2982 106.305 50.3089C106.292 50.3194 106.268 50.3368 106.234 50.3562C106.17 50.3927 106.034 50.456 105.842 50.456V48.456C105.359 48.456 105.035 48.7524 104.911 48.8769L106.325 50.2911ZM105.842 50.456C105.794 50.456 105.584 50.4538 105.359 50.3041C105.234 50.2203 105.117 50.0985 105.038 49.9392C104.96 49.7841 104.938 49.6349 104.938 49.52H106.938C106.938 49.2074 106.797 48.8588 106.469 48.6399C106.212 48.4689 105.954 48.456 105.842 48.456V50.456ZM104.938 49.52C104.938 49.3902 105.014 49.4566 104.707 49.7178C104.42 49.9611 103.933 50.2571 103.19 50.5928L104.014 52.4152C104.829 52.0469 105.509 51.6603 106.001 51.2422C106.472 50.8421 106.938 50.2684 106.938 49.52H104.938ZM103.175 50.5998C101.76 51.2678 100.359 51.592 98.962 51.592V53.592C100.68 53.592 102.372 53.1908 104.029 52.4082L103.175 50.5998ZM98.962 51.592C96.6697 51.592 94.9632 51.1442 93.7509 50.3481L92.6531 52.0199C94.2995 53.1011 96.4329 53.592 98.962 53.592V51.592ZM93.7479 50.3461C92.5103 49.5398 91.0863 47.9887 89.4923 45.5767L87.8237 46.6793C89.4723 49.174 91.0777 50.9935 92.6561 52.0219L93.7479 50.3461ZM89.4959 45.5822C87.3974 42.3602 85.4694 39.1397 83.7117 35.9207L81.9563 36.8793C83.7399 40.1456 85.6946 43.4105 87.8201 46.6738L89.4959 45.5822ZM81.9623 35.9099C79.5592 40.1844 77.5593 43.3583 75.9587 45.4577L77.5492 46.6703C79.2341 44.4603 81.2874 41.1916 83.7057 36.8901L81.9623 35.9099ZM76.0469 45.3569C75.8997 45.5041 75.8028 45.5816 75.7513 45.616L76.8607 47.28C77.0652 47.1437 77.2669 46.9653 77.4611 46.7711L76.0469 45.3569ZM75.7325 45.6288C75.7631 45.6073 75.7333 45.6355 75.574 45.6784C75.4274 45.7179 75.2191 45.7573 74.9382 45.7912C74.3763 45.859 73.5999 45.896 72.594 45.896V47.896C73.6361 47.896 74.5023 47.8583 75.1778 47.7768C75.5155 47.736 75.8246 47.6821 76.094 47.6096C76.3507 47.5405 76.6355 47.438 76.8795 47.2672L75.7325 45.6288ZM72.594 45.896C72.4856 45.896 72.5376 45.8798 72.6519 45.9289C72.7198 45.958 72.8491 46.0271 72.9633 46.1741C73.0887 46.3352 73.146 46.5261 73.146 46.704H71.146C71.146 46.9459 71.222 47.1928 71.3847 47.4019C71.5363 47.5969 71.7215 47.706 71.8641 47.7671C72.1278 47.8801 72.4038 47.896 72.594 47.896V45.896ZM73.146 46.704C73.146 46.9491 73.054 47.1288 72.9901 47.2247C72.9268 47.3196 72.8623 47.3768 72.8342 47.4002C72.7795 47.4458 72.7486 47.4568 72.7852 47.4384L71.8908 45.6496C71.7995 45.6952 71.6725 45.7649 71.5538 45.8638C71.4899 45.917 71.146 46.2012 71.146 46.704H73.146ZM72.7591 47.451C73.4609 47.1252 74.0667 46.6976 74.5533 46.157L73.0667 44.819C72.7853 45.1317 72.4098 45.4081 71.9169 45.637L72.7591 47.451ZM74.5636 46.1453C77.0932 43.2451 79.7315 39.4335 82.4813 34.7286L80.7547 33.7194C78.0432 38.3585 75.4762 42.0563 73.0564 44.8307L74.5636 46.1453ZM82.4783 33.7142C82.0999 33.0757 81.6337 32.4484 81.0854 31.8316L79.5906 33.1604C80.0663 33.6956 80.4534 34.2203 80.7577 34.7338L82.4783 33.7142ZM81.0973 31.8452C80.8208 31.5227 80.5471 31.2424 80.2799 31.0346C80.0485 30.8546 79.6626 30.6 79.186 30.6V32.6C79.0594 32.6 78.9843 32.5646 78.9791 32.5622C78.9712 32.5585 78.9947 32.5687 79.0521 32.6133C79.1689 32.7042 79.3432 32.872 79.5787 33.1468L81.0973 31.8452Z" fill="white"/>
</svg>
